<svg id="Layer_1" data-name="Layer 1" xmlns="http://www.w3.org/2000/svg" viewBox="0 0 359.18 61.09"><defs><style>.cls-1{fill:#2f8e56;}.cls-2{fill:#76bc6f;}.cls-3{fill:#878787;}.cls-4{fill:#5c5c5c;}.cls-5{fill:#fff;}.cls-6{fill:#77bc6e;}</style></defs><path class="cls-1" d="M10.82,47.42l9.25,4.1L42,38.92V29.43Z" transform="translate(-10.82 -12.59)"/><polygon class="cls-2" points="31.19 51.6 31.19 61.09 0 43.03 0 34.83 9.26 38.93 31.19 51.6"/><path class="cls-3" d="M65.22,34.68,43.29,47.35v9.48L74.48,38.77Z" transform="translate(-10.82 -12.59)"/><polygon class="cls-4" points="63.66 17.99 63.66 26.18 54.41 22.09 32.47 9.48 32.47 0 63.66 17.99"/><path class="cls-5" d="M94.8,47.13V22.31h7.38a9.36,9.36,0,0,1,4.35,1,6.81,6.81,0,0,1,2.9,2.72,8,8,0,0,1,1,4.08v9.28a8,8,0,0,1-1,4.08,7,7,0,0,1-2.9,2.74,9.36,9.36,0,0,1-4.35,1Zm7.38-3.91a4,4,0,0,0,2.93-1,3.76,3.76,0,0,0,1.09-2.82V30.07a3.72,3.72,0,0,0-1.09-2.81,4.08,4.08,0,0,0-2.93-1H99.05v17Z" transform="translate(-10.82 -12.59)"/><path class="cls-5" d="M131.8,38.8H120.37v1.33q0,4,3.74,4a4.62,4.62,0,0,0,2.28-.49,2.23,2.23,0,0,0,1.09-1.45h4.22A6,6,0,0,1,129.14,46a8.65,8.65,0,0,1-5.06,1.44,8.77,8.77,0,0,1-4.13-.91A6.65,6.65,0,0,1,117.24,44a7.64,7.64,0,0,1-.95-3.86V35.44a7.64,7.64,0,0,1,.95-3.86A6.58,6.58,0,0,1,120,29a8.77,8.77,0,0,1,4.11-.92,8.65,8.65,0,0,1,4.08.92,6.51,6.51,0,0,1,2.68,2.57,7.55,7.55,0,0,1,1,3.86Zm-11.43-2.65,7.35-.07V35.4a4.35,4.35,0,0,0-.92-3,3.47,3.47,0,0,0-2.72-1,3.53,3.53,0,0,0-2.77,1,4.31,4.31,0,0,0-.94,3Z" transform="translate(-10.82 -12.59)"/><path class="cls-5" d="M142.91,47.13l-6.08-18.7h4.38l3.47,11.36q.56,1.77,1,3.84c.34-1.38.68-2.65,1-3.8l3.4-11.4h4.32l-6.05,18.7Z" transform="translate(-10.82 -12.59)"/><path class="cls-5" d="M175,38.8H163.55v1.33q0,4,3.74,4a4.65,4.65,0,0,0,2.28-.49,2.23,2.23,0,0,0,1.09-1.45h4.21A5.9,5.9,0,0,1,172.32,46a8.65,8.65,0,0,1-5.06,1.44,8.8,8.8,0,0,1-4.13-.91,6.57,6.57,0,0,1-2.7-2.57,7.55,7.55,0,0,1-1-3.86V35.44a7.55,7.55,0,0,1,1-3.86A6.53,6.53,0,0,1,163.14,29a8.84,8.84,0,0,1,4.12-.92,8.65,8.65,0,0,1,4.08.92A6.57,6.57,0,0,1,174,31.58a7.55,7.55,0,0,1,1,3.86Zm-11.43-2.65,7.35-.07V35.4a4.35,4.35,0,0,0-.92-3,3.47,3.47,0,0,0-2.72-1,3.53,3.53,0,0,0-2.77,1,4.31,4.31,0,0,0-.94,3Z" transform="translate(-10.82 -12.59)"/><path class="cls-5" d="M191.53,47.13a6.07,6.07,0,0,1-4.47-1.66,5.9,5.9,0,0,1-1.68-4.39V26.16h-5.71V22.31h10V41.08a2.22,2.22,0,0,0,.59,1.6,2.12,2.12,0,0,0,1.59.61h5.81v3.84Z" transform="translate(-10.82 -12.59)"/><path class="cls-5" d="M204.74,45.49a7.08,7.08,0,0,1-2.09-5.36V35.44a7.06,7.06,0,0,1,2.09-5.36,9,9,0,0,1,11.32,0,7,7,0,0,1,2.1,5.32v4.73a7,7,0,0,1-2.1,5.36,9.08,9.08,0,0,1-11.32,0ZM213,42.83a3.73,3.73,0,0,0,.91-2.7V35.44a3.73,3.73,0,0,0-.91-2.7,4.07,4.07,0,0,0-5.2,0,3.73,3.73,0,0,0-.9,2.7v4.69a3.73,3.73,0,0,0,.9,2.7,4.07,4.07,0,0,0,5.2,0Z" transform="translate(-10.82 -12.59)"/><path class="cls-5" d="M238.08,30a7.69,7.69,0,0,1,1.66,5.21V40.3a7.77,7.77,0,0,1-1.66,5.24,5.62,5.62,0,0,1-4.49,1.93,5.28,5.28,0,0,1-3.38-1,4.28,4.28,0,0,1-1.58-2.88h-.11l.14,4.46v5.23h-4.25V28.43h4.15V32h.07a4.28,4.28,0,0,1,1.58-2.87,5.28,5.28,0,0,1,3.38-1A5.65,5.65,0,0,1,238.08,30Zm-2.59,5.42a3.84,3.84,0,0,0-.88-2.72,3.77,3.77,0,0,0-5,0,3.76,3.76,0,0,0-.92,2.7v4.69a3.76,3.76,0,0,0,.92,2.7,3.77,3.77,0,0,0,5,0,3.84,3.84,0,0,0,.88-2.72Z" transform="translate(-10.82 -12.59)"/><path class="cls-5" d="M261.33,38.8H249.91v1.33q0,4,3.74,4a4.65,4.65,0,0,0,2.28-.49A2.26,2.26,0,0,0,257,42.17h4.21A6,6,0,0,1,258.68,46a8.65,8.65,0,0,1-5.06,1.44,8.84,8.84,0,0,1-4.14-.91,6.69,6.69,0,0,1-2.7-2.57,7.64,7.64,0,0,1-.95-3.86V35.44a7.64,7.64,0,0,1,.95-3.86A6.56,6.56,0,0,1,249.5,29a8.84,8.84,0,0,1,4.12-.92,8.65,8.65,0,0,1,4.08.92,6.57,6.57,0,0,1,2.68,2.57,7.54,7.54,0,0,1,.95,3.86Zm-11.42-2.65,7.34-.07V35.4a4.35,4.35,0,0,0-.91-3,3.49,3.49,0,0,0-2.72-1,3.57,3.57,0,0,0-2.78,1,4.36,4.36,0,0,0-.93,3Z" transform="translate(-10.82 -12.59)"/><path class="cls-5" d="M282.11,30a7.34,7.34,0,0,1,1.73,5.17v1.36h-4.45V35.44a3.92,3.92,0,0,0-.94-2.79,3.35,3.35,0,0,0-2.57-1,3.3,3.3,0,0,0-2.55,1,4,4,0,0,0-.91,2.77V47.13h-4.25V28.43h4V32h0A4.88,4.88,0,0,1,274,29.08a5.43,5.43,0,0,1,3.4-1A6.21,6.21,0,0,1,282.11,30Z" transform="translate(-10.82 -12.59)"/><path class="cls-5" d="M292.1,47.13h-4.35L294,22.31h5.47l6.29,24.82h-4.35l-1.36-6h-6.6Zm2.14-9.48h5L297.78,31c-.57-2.56-.91-4.21-1-5-.11.77-.45,2.41-1,4.93Z" transform="translate(-10.82 -12.59)"/><path class="cls-5" d="M321.68,22.31h4.25V47.13h-4.15V43.56h-.06a4.36,4.36,0,0,1-1.58,2.88,5.33,5.33,0,0,1-3.39,1,5.64,5.64,0,0,1-4.49-1.92,7.69,7.69,0,0,1-1.66-5.22V35.27A7.79,7.79,0,0,1,312.26,30a5.63,5.63,0,0,1,4.49-1.94,5.33,5.33,0,0,1,3.39,1A4.36,4.36,0,0,1,321.72,32h.1l-.14-4.45Zm-.9,20.52a3.8,3.8,0,0,0,.9-2.7V35.44a3.77,3.77,0,0,0-.9-2.69,3.32,3.32,0,0,0-2.53-.95,3.28,3.28,0,0,0-2.52.94,3.77,3.77,0,0,0-.88,2.7v4.69a3.84,3.84,0,0,0,.88,2.72,3.8,3.8,0,0,0,5,0Z" transform="translate(-10.82 -12.59)"/><path class="cls-5" d="M345.62,29.76a5.82,5.82,0,0,1,2,4.69V47.13h-4.11V43.87h-.07a4,4,0,0,1-1.86,2.64,6.85,6.85,0,0,1-3.75,1A6.42,6.42,0,0,1,333.31,46a5.26,5.26,0,0,1-1.67-4.09,5.26,5.26,0,0,1,1.84-4.31,8,8,0,0,1,5.2-1.51h4.66V34.49a2.71,2.71,0,0,0-.85-2.15A3.64,3.64,0,0,0,340,31.6a4.21,4.21,0,0,0-2.33.59,2.37,2.37,0,0,0-1.07,1.68h-4.15a5.92,5.92,0,0,1,2.37-4.21,8.44,8.44,0,0,1,5.25-1.57A8.3,8.3,0,0,1,345.62,29.76Zm-3.4,13.63A2.91,2.91,0,0,0,343.34,41V38.7h-4.59a2.9,2.9,0,0,0-2.08.75,2.66,2.66,0,0,0-.78,2,2.57,2.57,0,0,0,.89,2,3.61,3.61,0,0,0,2.45.77A4.71,4.71,0,0,0,342.22,43.39Z" transform="translate(-10.82 -12.59)"/><path class="cls-5" d="M369,29.4a5.49,5.49,0,0,1,1,3.49V47.13h-3.74V33.19a2.57,2.57,0,0,0-.4-1.56,1.58,1.58,0,0,0-2.38,0,2.57,2.57,0,0,0-.41,1.56V47.13H360V33.19a2.44,2.44,0,0,0-.43-1.56,1.47,1.47,0,0,0-1.24-.54c-1,0-1.49.7-1.49,2.1V47.13H353.1V28.43h3.47V31h.17a3.27,3.27,0,0,1,1-2.09,3,3,0,0,1,2.11-.77,2.69,2.69,0,0,1,1.94.75A4,4,0,0,1,362.86,31H363a3.27,3.27,0,0,1,1-2.09,3.16,3.16,0,0,1,2.18-.77A3.34,3.34,0,0,1,369,29.4Z" transform="translate(-10.82 -12.59)"/><path class="cls-3" d="M99.45,67.94l-1-10.22h1.51l.62,7.14c0,.43.08,1.06.11,1.89l.18-1.89.84-7.14h1.47l.78,7.14.23,1.89c0-.83.06-1.46.11-1.89l.6-7.14h1.5l-1.11,10.22h-1.93l-.75-7.17c-.06-.46-.12-1.11-.17-1.94-.06.83-.11,1.48-.17,1.94l-.83,7.17Z" transform="translate(-10.82 -12.59)"/><path class="cls-3" d="M127.31,67.94h-6.13V57.72h6.13v1.51H122.9v2.68h3.92v1.51H122.9v3h4.41Z" transform="translate(-10.82 -12.59)"/><path class="cls-3" d="M148.8,63.35a2.41,2.41,0,0,1,.59,1.68,2.7,2.7,0,0,1-.89,2.12,3.51,3.51,0,0,1-2.42.79h-3.29V57.72h3.14a3.62,3.62,0,0,1,2.35.71,2.34,2.34,0,0,1,.87,1.92,2.19,2.19,0,0,1-.53,1.49,2.21,2.21,0,0,1-1.36.74A2.43,2.43,0,0,1,148.8,63.35Zm-4.3-4.17v2.76h1.4a1.54,1.54,0,0,0,1.09-.38,1.29,1.29,0,0,0,.41-1,1.32,1.32,0,0,0-.4-1,1.58,1.58,0,0,0-1.1-.36ZM146,66.49a1.68,1.68,0,0,0,1.21-.42,1.47,1.47,0,0,0,.44-1.12,1.58,1.58,0,0,0-.44-1.17,1.64,1.64,0,0,0-1.21-.43H144.5v3.14Z" transform="translate(-10.82 -12.59)"/><path class="cls-6" d="M186.3,67.94V57.72h3a3.9,3.9,0,0,1,1.79.39,2.8,2.8,0,0,1,1.19,1.12,3.33,3.33,0,0,1,.42,1.68v3.83a3.33,3.33,0,0,1-.42,1.68,2.8,2.8,0,0,1-1.19,1.12,3.78,3.78,0,0,1-1.79.4Zm3-1.61a1.68,1.68,0,0,0,1.21-.43,1.58,1.58,0,0,0,.44-1.16V60.91a1.54,1.54,0,0,0-.44-1.15,1.68,1.68,0,0,0-1.21-.43h-1.29v7Z" transform="translate(-10.82 -12.59)"/><path class="cls-6" d="M214.39,67.94h-6.14V57.72h6.14v1.51H210v2.68h3.92v1.51H210v3h4.41Z" transform="translate(-10.82 -12.59)"/><path class="cls-6" d="M231.86,67.94l-2.58-10.22h1.82l1.54,6.65c.14.58.28,1.24.41,2q.16-1.11.36-2l1.53-6.65h1.76l-2.57,10.22Z" transform="translate(-10.82 -12.59)"/><path class="cls-6" d="M257.93,67.94h-6.14V57.72h6.14v1.51h-4.41v2.68h3.92v1.51h-3.92v3h4.41Z" transform="translate(-10.82 -12.59)"/><path class="cls-6" d="M279.86,67.94h-6.09V57.72h1.75v8.6h4.34Z" transform="translate(-10.82 -12.59)"/><path class="cls-6" d="M296,67.26a2.9,2.9,0,0,1-.86-2.2V60.61A2.92,2.92,0,0,1,296,58.4a3.72,3.72,0,0,1,4.66,0,2.87,2.87,0,0,1,.86,2.19v4.47a2.86,2.86,0,0,1-.86,2.2,3.72,3.72,0,0,1-4.66,0Zm3.41-1.09a1.58,1.58,0,0,0,.36-1.11V60.61a1.59,1.59,0,0,0-.36-1.12,1.71,1.71,0,0,0-2.15,0,1.55,1.55,0,0,0-.37,1.12v4.45a1.58,1.58,0,0,0,.37,1.11,1.42,1.42,0,0,0,1.07.39A1.4,1.4,0,0,0,299.38,66.17Z" transform="translate(-10.82 -12.59)"/><path class="cls-6" d="M317,67.94V57.72h3.4a3.86,3.86,0,0,1,1.78.39,2.84,2.84,0,0,1,1.19,1.11,3.21,3.21,0,0,1,.42,1.65,3.16,3.16,0,0,1-.42,1.65,2.84,2.84,0,0,1-1.19,1.11,3.86,3.86,0,0,1-1.78.39H318.7v3.92Zm3.4-5.49a1.58,1.58,0,0,0,1.17-.43,1.51,1.51,0,0,0,.44-1.15,1.53,1.53,0,0,0-.43-1.15,1.59,1.59,0,0,0-1.18-.43H318.7v3.16Z" transform="translate(-10.82 -12.59)"/><path class="cls-6" d="M345,67.94h-6.14V57.72H345v1.51H340.6v2.68h3.92v1.51H340.6v3H345Z" transform="translate(-10.82 -12.59)"/><path class="cls-6" d="M360.48,67.94V57.72h3.23a4,4,0,0,1,1.77.38,2.83,2.83,0,0,1,1.18,1.06,3.1,3.1,0,0,1,.41,1.6,3.25,3.25,0,0,1-.5,1.78,2.74,2.74,0,0,1-1.39,1.09l2,4.31h-2l-1.78-4.06h-1.24v4.06Zm3.23-5.58a1.59,1.59,0,0,0,1.16-.42,1.49,1.49,0,0,0,.42-1.12,1.55,1.55,0,0,0-.42-1.15,1.59,1.59,0,0,0-1.16-.42h-1.48v3.11Z" transform="translate(-10.82 -12.59)"/></svg>